<svg width="36" height="36" viewBox="0 0 36 36" fill="none" xmlns="http://www.w3.org/2000/svg">
<mask id="mask0_1_69" style="mask-type:alpha" maskUnits="userSpaceOnUse" x="0" y="0" width="36" height="36">
<rect width="36" height="36" fill="#D9D9D9"/>
</mask>
<g mask="url(#mask0_1_69)">
<path d="M27.225 33C27.85 31.45 28.2875 29.8625 28.5375 28.2375C28.7875 26.6125 28.85 24.975 28.725 23.325C27.75 25.4 26.294 27.031 24.357 28.218C22.419 29.406 20.3 30 18 30C15.9 30 14 29.506 12.3 28.518C10.6 27.531 9.14998 26.2125 7.94998 24.5625C6.74998 22.9125 5.82498 21.0185 5.17498 18.8805C4.52498 16.7435 4.19998 14.525 4.19998 12.225C4.19998 10.65 4.30648 9.0935 4.51948 7.5555C4.73148 6.0185 5.09998 4.5 5.62498 3H8.77498C8.17498 4.55 7.74398 6.1375 7.48198 7.7625C7.21898 9.3875 7.14998 11.025 7.27498 12.675C8.24998 10.6 9.70648 8.969 11.6445 7.782C13.5815 6.594 15.7 6 18 6C20.1 6 22 6.4935 23.7 7.4805C25.4 8.4685 26.85 9.7875 28.05 11.4375C29.25 13.0875 30.175 14.981 30.825 17.118C31.475 19.256 31.8 21.475 31.8 23.775C31.8 25.35 31.694 26.906 31.482 28.443C31.269 29.981 30.9 31.5 30.375 33H27.225ZM18 27C20.5 27 22.625 26.125 24.375 24.375C26.125 22.625 27 20.5 27 18C27 15.5 26.125 13.375 24.375 11.625C22.625 9.875 20.5 9 18 9C15.5 9 13.375 9.875 11.625 11.625C9.87498 13.375 8.99998 15.5 8.99998 18C8.99998 20.5 9.87498 22.625 11.625 24.375C13.375 26.125 15.5 27 18 27ZM18 24C19.65 24 21.0625 23.4125 22.2375 22.2375C23.4125 21.0625 24 19.65 24 18C24 16.35 23.4125 14.9375 22.2375 13.7625C21.0625 12.5875 19.65 12 18 12C16.35 12 14.9375 12.5875 13.7625 13.7625C12.5875 14.9375 12 16.35 12 18C12 19.65 12.5875 21.0625 13.7625 22.2375C14.9375 23.4125 16.35 24 18 24ZM18 21C17.175 21 16.469 20.706 15.882 20.118C15.294 19.531 15 18.825 15 18C15 17.175 15.294 16.4685 15.882 15.8805C16.469 15.2935 17.175 15 18 15C18.825 15 19.5315 15.2935 20.1195 15.8805C20.7065 16.4685 21 17.175 21 18C21 18.825 20.7065 19.531 20.1195 20.118C19.5315 20.706 18.825 21 18 21Z" fill="#212226"/>
</g>
</svg>
